<?xml version="1.0" encoding="UTF-8" standalone="no"?>
<!-- Created with Inkscape (http://www.inkscape.org/) -->

<svg
   version="1.1"
   id="svg1"
   width="1920"
   height="1080"
   viewBox="0 0 1920 1080"
   sodipodi:docname="isotipo.svg"
   inkscape:version="1.4.2 (f4327f4, 2025-05-13)"
   xml:space="preserve"
   xmlns:inkscape="http://www.inkscape.org/namespaces/inkscape"
   xmlns:sodipodi="http://sodipodi.sourceforge.net/DTD/sodipodi-0.dtd"
   xmlns="http://www.w3.org/2000/svg"
   xmlns:svg="http://www.w3.org/2000/svg"><defs
     id="defs1"><inkscape:path-effect
       effect="bspline"
       id="path-effect52"
       is_visible="true"
       lpeversion="1.3"
       weight="33.333333"
       steps="2"
       helper_size="0"
       apply_no_weight="true"
       apply_with_weight="true"
       only_selected="false"
       uniform="false" /><inkscape:path-effect
       effect="bspline"
       id="path-effect3"
       is_visible="true"
       lpeversion="1.3"
       weight="33.333333"
       steps="2"
       helper_size="0"
       apply_no_weight="true"
       apply_with_weight="true"
       only_selected="false"
       uniform="false" /></defs><sodipodi:namedview
     id="namedview1"
     pagecolor="#505050"
     bordercolor="#eeeeee"
     borderopacity="1"
     inkscape:showpageshadow="0"
     inkscape:pageopacity="0"
     inkscape:pagecheckerboard="0"
     inkscape:deskcolor="#505050"
     inkscape:zoom="0.5"
     inkscape:cx="1087"
     inkscape:cy="417"
     inkscape:window-width="1920"
     inkscape:window-height="1009"
     inkscape:window-x="-8"
     inkscape:window-y="-8"
     inkscape:window-maximized="1"
     inkscape:current-layer="g1"
     showguides="false" /><g
     inkscape:groupmode="layer"
     inkscape:label="Image"
     id="g1"
     transform="matrix(0.92144707,0,0,1,-35.56129,0)"
     style="display:inline"><path
       style="fill:#010132;fill-opacity:1;stroke-width:0.970225"
       d="m 530.89026,813.89506 c -22.11187,-4.98128 -41.22159,-18.47388 -55.40368,-39.11831 -6.746,-9.81996 -9.98008,-16.56705 -29.00418,-60.51012 -9.17415,-21.19104 -20.88983,-48.09332 -26.03485,-59.78283 l -9.35456,-21.25367 -12.34482,21.54494 c -6.78964,11.84972 -19.05332,32.9923 -27.25261,46.98352 -8.19928,13.99123 -19.93588,34.07627 -26.08132,44.63344 -11.6162,19.95531 -15.80934,25.04446 -25.72509,31.22214 -11.13747,6.93884 -14.52803,7.43807 -51.43286,7.57305 l -32.62372,0.11933 -2.71844,-2.49093 c -1.49513,-1.37001 -2.71843,-3.5561 -2.71843,-4.85798 0,-1.30187 4.22851,-8.59182 9.39671,-16.19988 12.33448,-18.15754 41.14536,-62.85712 96.36284,-149.50529 24.76682,-38.8645 46.4175,-72.14665 48.11262,-73.96032 9.6135,-10.28586 17.93126,-14.8922 28.43387,-15.74656 11.3288,-0.92156 24.32906,5.62996 32.21371,16.23418 1.69649,2.28165 10.01922,20.38238 18.49493,40.22384 8.47571,19.84145 20.62619,47.73472 27.00106,61.98504 6.37488,14.25031 14.44053,32.4813 17.92367,40.5133 16.27085,37.52003 19.64612,44.43187 23.95857,49.0622 5.24845,5.63532 9.33661,7.46798 16.65896,7.46798 6.87118,0 13.23053,-2.50781 18.89846,-7.45261 6.72273,-5.86502 9.33042,-9.78691 36.07755,-54.25951 118.50863,-197.0449 197.54656,-310.65563 255.3012,-366.97511 19.22252,-18.74485 34.90732,-31.08498 44.41583,-34.94444 16.50954,-6.70117 27.26089,6.39694 18.01486,21.94707 -1.93964,3.26211 -8.80543,12.29075 -15.25732,20.06365 -55.87349,67.31345 -84.43736,114.06605 -203.19604,332.58591 -52.03638,95.74866 -61.90866,112.75407 -73.51341,126.62988 -9.47882,11.33385 -27.67722,25.83113 -38.8911,30.98159 -13.70912,6.2965 -21.65064,7.99964 -38.84984,8.33171 -10.29809,0.19883 -16.78233,-0.12603 -20.86257,-1.04521 z M 56.099786,783.21309 c -4.615848,-2.33082 -6.930922,-6.46597 -6.040692,-10.78978 0.565534,-2.74678 10.78399,-21.76117 36.709842,-68.30929 2.453249,-4.40464 7.953771,-14.36809 12.223381,-22.14099 8.625373,-15.70265 62.442843,-112.75009 120.431243,-217.17012 82.80577,-149.10877 115.34495,-206.95757 118.25398,-210.23422 3.52052,-3.96545 8.87322,-7.07096 15.30468,-8.87942 6.79479,-1.91062 103.98023,-1.91535 112.03187,-0.005 7.28723,1.72858 14.01319,5.4177 17.86275,9.79755 3.34632,3.8073 4.74544,7.00256 67.11003,153.26244 23.86319,55.96488 45.85323,107.47801 48.86678,114.47362 6.13002,14.23018 6.63718,18.50574 2.98023,25.12493 -3.69502,6.68811 -36.78324,68.43971 -48.38035,90.29086 -10.59572,19.96437 -13.26776,23.08316 -19.77664,23.08316 -4.8058,0 -7.83919,-1.39382 -9.91329,-4.55509 -0.94359,-1.43819 -23.75761,-54.52866 -50.69782,-117.97883 -55.57293,-130.88654 -69.36207,-163.1173 -70.00129,-163.62112 -0.24639,-0.1942 -2.34158,3.16464 -4.65597,7.46408 -11.09059,20.60293 -88.95391,162.9008 -125.17194,228.75597 -26.80868,48.74614 -38.20687,69.62827 -46.02711,84.32419 -41.3967,77.79335 -42.83868,80.03866 -55.45154,86.34315 l -5.38542,2.69189 -53.2592,-0.0159 c -51.307239,-0.0153 -53.396807,-0.0853 -57.013524,-1.91165 z"
       id="path2" /><path
       style="fill:#010132;fill-opacity:1"
       d="m 243.04373,775.24084 c -9.96387,-4.04115 -14.1554,-16.16962 -19.61077,-33.23969 -5.45538,-17.07008 -12.17403,-39.07994 -8.77903,-60.10483 3.395,-21.02489 16.90327,-41.0623 27.16384,-42.91296 10.26058,-1.85066 17.27249,14.48597 23.90192,30.42787 6.62942,15.94191 12.87618,31.48868 17.09324,42.85318 4.21706,11.36451 6.40428,18.54633 6.34379,27.67021 -0.0605,9.12389 -2.36865,20.18884 -11.39102,27.74493 -9.02236,7.55608 -24.75809,11.60245 -34.72197,7.56129 z"
       id="path3"
       inkscape:path-effect="#path-effect3"
       inkscape:original-d="m 237.27148,783.32846 c -4.19162,-12.12877 -8.38314,-24.25724 -12.57484,-36.38621 -6.71905,-22.01118 -13.43771,-44.02104 -20.15677,-66.03224 13.50906,-20.03858 27.01733,-40.07599 40.52633,-60.11448 7.01215,16.33717 14.02406,32.6738 21.0361,49.01072 6.24681,15.54689 12.49357,31.09366 18.74041,46.64062 2.18728,7.18205 4.37449,14.36387 6.56181,21.54601 -2.3083,11.06563 -4.61645,22.13058 -6.92475,33.19621 -15.73643,4.04654 -31.47216,8.09291 -47.20829,12.13937 z"
       transform="matrix(1.2015776,0,0,1.3403511,-56.002042,-256.10313)"
       sodipodi:nodetypes="ccccccccc" /><path
       d="m 1809.2405,644.02334 v 6.58729 6.58727 h 9.8912 9.8907 v 21.17391 21.17389 h 9.3106 9.3086 V 678.37181 657.1979 h 9.8928 9.8911 v -6.58727 -6.58729 h -29.0925 z"
       style="fill:#010132;stroke-width:1.04649"
       id="path14" /><path
       d="m 1809.5217,581.67142 v 28.98953 28.98954 h 8.7933 8.7937 v -9.39789 -9.39788 l 3.7603,0.30913 c 3.399,0.27827 4.3328,1.15999 9.6955,9.15271 l 5.9333,8.84359 10.3123,0.28426 10.3129,0.28602 -3.1929,-4.70783 c -4.8557,-7.15682 -7.7924,-11.37021 -9.5349,-13.67933 -1.4546,-1.92782 -1.2468,-2.25648 2.6216,-4.16954 11.3777,-5.62693 11.6037,-23.72023 0.3859,-30.89219 -5.6315,-3.60027 -12.1431,-4.55797 -31.173,-4.58525 z m 17.587,13.7575 h 7.4158 c 6.2365,0 7.8213,0.36322 9.9651,2.27575 3.1983,2.85338 3.2353,5.57371 0.1212,8.89334 -2.1749,2.31743 -3.2207,2.59019 -9.9651,2.59019 h -7.5361 v -6.87876 z"
       style="fill:#010132;stroke-width:1.07337"
       id="path12" /><path
       d="m 1842.664,400.18838 c -1.5111,-0.01 -3.3205,0.0401 -5.6178,0.12167 -8.6527,0.30717 -10.7732,0.73215 -15.504,3.1094 -7.5122,3.77482 -10.0285,6.81564 -10.6495,12.86857 -0.6425,6.26066 1.8893,11.03976 7.2731,13.72871 2.0983,1.04795 9.372,3.00453 16.1656,4.3481 10.482,2.07294 12.5475,2.78804 13.6395,4.72494 3.9485,7.00336 -13.7768,8.98847 -18.6353,2.08702 -1.8764,-2.6655 -2.1812,-2.74171 -10.9851,-2.74777 l -9.0565,-0.005 0.7918,3.03675 c 2.114,8.10683 7.8722,13.1038 17.6908,15.34931 7.6057,1.7395 20.9216,0.96955 27.4559,-1.5868 7.7418,-3.02875 11.3123,-7.35326 11.8449,-14.34215 0.3673,-4.82355 0.014,-6.23985 -2.2717,-8.95138 -3.7341,-4.44194 -7.9785,-6.21278 -21.2707,-8.87364 -10.9382,-2.18967 -14.3936,-3.80408 -14.3936,-6.72578 0,-1.89158 4.8317,-4.0811 9.0075,-4.0811 5.0329,0 8.1896,1.42326 9.5449,4.30417 1.0426,2.21626 1.4726,2.30882 9.4882,2.04646 l 8.3948,-0.27376 -0.3884,-2.80524 c -0.7591,-5.47392 -4.974,-10.10734 -11.7561,-12.92431 -4.3747,-1.81694 -6.2347,-2.37869 -10.7683,-2.4081 z"
       style="fill:#010132;stroke-width:1.03983"
       id="path11" /><path
       d="m 1809.988,461.67086 v 29.13298 29.13477 h 9.645 9.647 v -8.39462 -8.3946 l 7.5365,-0.006 c 13.9441,-0.01 22.5839,-3.45858 27.1292,-10.82801 4.7193,-7.65128 3.0216,-18.26607 -3.8793,-24.25905 -5.601,-4.86423 -13.5657,-6.38611 -33.4178,-6.38611 z m 19.292,13.82558 h 6.6326 c 5.0238,0 7.2147,0.48005 9.0417,1.97637 2.8108,2.30225 3.205,7.62289 0.7663,10.35488 -1.203,1.34736 -3.6404,1.96155 -9.0436,2.28165 l -7.397,0.43919 v -7.52515 z"
       style="fill:#010132;stroke-width:1.09122"
       id="path9"
       inkscape:transform-center-x="-0.48951354"
       inkscape:transform-center-y="-4.4479199" /><path
       d="m 1837.5921,523.26472 c -3.0783,0.0517 -6.171,0.48281 -9.148,1.32372 -7.915,2.23586 -16.1654,9.73004 -18.3924,16.70678 -5.4007,16.92058 2.7367,32.94201 18.9786,37.36308 10.3206,2.80932 23.3516,0.0148 30.7665,-6.59837 6.1609,-5.49512 7.8288,-9.39887 8.2982,-19.41475 0.4682,-9.98693 -0.9262,-14.2464 -6.6815,-20.40959 -5.4763,-5.86422 -14.5856,-9.1258 -23.8214,-8.97087 z m 1.6137,12.96269 c 7.9516,0.16349 13.3966,6.32629 13.3966,15.47156 0,6.07509 -2.3158,10.75876 -6.3682,12.87776 -4.7598,2.48879 -9.352,2.81315 -13.2142,0.93428 -7.2936,-3.54788 -10.4497,-12.69363 -7.1883,-20.82711 2.1994,-5.48416 5.6117,-7.92652 11.7526,-8.40886 0.5515,-0.0434 1.0915,-0.0586 1.6215,-0.0476 z"
       style="fill:#010132;stroke-width:0.946798"
       id="path8" /><path
       d="m 1728.1102,646.0922 c -8.6918,0.006 -17.3912,1.34785 -25.3232,4.02344 -9.5836,3.23264 -19.6655,12.30959 -22.0293,19.83203 -2.1313,6.78221 -1.9828,17.1992 0.3179,22.14648 5.3294,11.45924 14.8128,15.94918 48.2173,22.83204 14.1432,2.91413 19.0619,5.95632 18.8817,11.67187 -0.2178,6.9069 -7.3475,10.32489 -20.0157,9.59766 -9.8922,-0.56787 -16.9111,-4.46989 -18.0719,-10.04883 l -0.7907,-3.80078 h -15.9735 c -9.839,0 -16.2735,0.4338 -16.7514,1.13086 -1.196,1.74466 1.7735,11.85513 4.9557,16.875 5.4511,8.59915 16.8088,15.04934 31.0314,17.62304 6.9941,1.26564 25.6395,1.27454 33.0026,0.0156 20.9023,-3.57379 34.7173,-16.59927 34.6983,-32.71484 -0.022,-18.55196 -10.8988,-26.85696 -44.0374,-33.62305 -15.4093,-3.14618 -19.2081,-4.37705 -22.7648,-7.38086 -3.2153,-2.7154 -3.4472,-6.34468 -0.6529,-10.18945 2.7046,-3.72127 8.4368,-5.75696 16.194,-5.75196 8.1401,0.005 13.6525,2.93324 16.3254,8.67188 l 1.9882,4.26758 14.6784,0.01 14.6805,0.0117 v -3.04492 c 0,-11.5043 -10.0944,-23.71569 -23.282,-28.16406 -7.9011,-2.66516 -16.5869,-3.99596 -25.2786,-3.99024 z"
       style="fill:#010132;stroke-width:1.13785"
       id="path30" /><path
       d="m 1612.4951,646.55705 c -25.3824,0.0589 -41.9262,8.92704 -47.3462,25.38085 -3.8267,11.61789 -1.637,20.28732 7.175,28.39258 7.1136,6.54306 13.219,8.83421 35.9043,13.47852 17.2146,3.52433 22.2806,5.62604 23.9646,9.94336 3.6483,9.35234 -10.9544,15.56557 -27.0889,11.52539 -4.9178,-1.23144 -11.783,-7.52852 -11.783,-10.8086 0,-2.00177 -0.8914,-2.12304 -15.5793,-2.12304 h -15.5771 v 4.1289 c 0,13.90939 12.6148,26.36894 31.2815,30.89454 8.6445,2.09586 29.6003,2.10894 39.406,0.0254 19.2253,-4.08505 31.1423,-16.25405 31.1543,-31.8086 0.01,-9.37944 -1.5321,-13.84481 -6.6175,-19.20117 -5.781,-6.08883 -16.0737,-10.36955 -34.3083,-14.26953 -8.3488,-1.78561 -16.7071,-3.76836 -18.5743,-4.40625 -9.225,-3.15118 -11.5448,-10.11511 -5.1952,-15.59961 2.9425,-2.54141 4.899,-3.19014 10.7889,-3.57422 4.24,-0.2765 8.6785,0.0849 10.8101,0.88086 4.3798,1.6356 9.5595,6.94431 9.5595,9.79688 0,1.94461 1.008,2.07812 15.7149,2.07812 h 15.7149 l -0.833,-5.13281 c -3.2051,-19.71437 -19.5405,-29.66896 -48.5712,-29.60156 z"
       style="fill:#010132;stroke-width:1.13785"
       id="path29" /><path
       d="m 1460.3036,648.87931 v 54.01953 54.01953 h 42.541 42.543 v -11.88476 -11.88477 h -26.9638 -26.9637 v -9.72265 -9.72266 h 25.8022 25.8022 l -0.1696,-10.80469 -0.1674,-10.80273 h -25.6348 -25.6326 v -9.1836 -9.18359 h 26.9637 26.9638 v -12.42383 -12.42578 h -42.543 z"
       style="fill:#010132;stroke-width:1.13785"
       id="path28" /><path
       d="m 1335.0739,648.87931 0.3222,54.01953 0.3201,54.01953 h 14.9942 14.9921 l -0.3349,-31.87304 c -0.184,-17.52957 -0.029,-31.87145 0.3434,-31.8711 0.3722,3.3e-4 1.5647,1.58053 2.6517,3.51172 1.0868,1.93118 10.5732,16.15207 21.0797,31.60156 l 19.102,28.08985 16.2915,0.30078 16.2936,0.30078 v -54.04883 -54.05078 h -15.0324 -15.0303 l 0.3519,31.33203 c 0.3224,28.73855 -0.1408,34.64642 -2.3083,29.43946 -0.7032,-1.6893 -12.6606,-19.68417 -33.3587,-50.20899 l -7.1241,-10.50781 -16.7768,-0.0273 z"
       style="fill:#010132;stroke-width:1.13785"
       id="path27" /><path
       d="m 1238.6054,648.87931 v 54.01953 54.01953 h 41.3433 41.3434 v -12.42382 -12.42579 h -25.1642 -25.1664 v -41.59375 -41.5957 h -16.177 z"
       style="fill:#010132;stroke-width:1.13785"
       id="path26" /><path
       d="m 1142.7367,648.87931 v 54.01953 54.01953 h 40.7435 40.7456 v -12.42382 -12.42579 h -25.1663 -25.1642 v -41.59375 -41.5957 h -15.5793 z"
       style="fill:#010132;stroke-width:1.13785"
       id="path25" /><path
       d="m 1039.6783,648.87931 v 54.01953 54.01953 h 42.5409 42.5431 v -11.88476 -11.88477 h -26.9638 -26.9638 v -9.72265 -9.72266 h 25.1664 25.1642 v -10.80469 -10.80273 h -25.1642 -25.1664 v -9.1836 -9.18359 h 26.364 26.3639 v -12.42383 -12.42578 h -41.9432 z"
       style="fill:#010132;stroke-width:1.13785"
       id="path24" /><path
       d="m 1010.9192,648.66642 c -9.2284,0.17988 -16.779,0.47442 -16.779,0.6543 0,0.17989 -2.6213,11.70024 -5.8247,25.60156 -3.2034,13.9013 -6.8241,29.77308 -8.0461,35.26953 -1.2219,5.49647 -2.6446,9.99414 -3.1625,9.99414 -0.5179,0 -0.9383,-0.6088 -0.9263,-1.35156 0.01,-0.74277 -3.8151,-14.96365 -8.4997,-31.60156 -4.6848,-16.6379 -9.0278,-32.07249 -9.6507,-34.30078 l -1.1318,-4.05274 h -15.53268 c -8.5429,0 -15.53263,0.15142 -15.53263,0.33594 0,0.29186 -13.80543,48.48758 -18.85409,65.82226 -2.008,6.89406 -3.25681,7.22311 -4.26681,1.12305 -0.3714,-2.24278 -3.35776,-15.50283 -6.63656,-29.4668 -3.2786,-13.96396 -6.58955,-28.18484 -7.35935,-31.60156 l -1.40107,-6.21289 h -16.69207 c -14.28764,0 -16.69207,0.24243 -16.69207,1.67774 0,0.92228 2.47016,10.28059 5.48771,20.79687 3.01758,10.51628 7.85912,27.38474 10.75924,37.48633 2.8999,10.10158 7.25553,25.06338 9.68034,33.24805 l 4.40882,14.88281 19.22927,-0.29688 19.22926,-0.29687 9.03386,-32.0586 c 4.9687,-17.63311 9.21244,-31.89935 9.43234,-31.70117 0.4143,0.37353 16.06329,54.58918 17.54629,60.78906 l 0.8394,3.51172 h 19.0321 19.0321 l 1.1807,-4.05078 c 6.2601,-21.49893 28.8736,-102.43321 28.8736,-103.3457 0,-0.81648 -5.1976,-1.08116 -16.7769,-0.85547 z"
       style="fill:#010132;stroke-width:1.13785"
       id="path23" /><path
       d="m 977.5033,404.1879 c -39.48586,-0.19981 -42.48107,-0.0824 -43.58807,1.70118 -1.2841,2.06872 -78.78445,210.09262 -78.78445,211.4707 0,0.45777 15.01255,0.83203 33.36294,0.83203 h 33.36507 l 1.48586,-4.5918 c 0.8174,-2.5254 3.6362,-10.79099 6.2635,-18.36718 l 4.77764,-13.77344 h 43.65801 c 31.7706,0 43.6579,0.33415 43.6579,1.22656 0,0.67448 2.7194,8.93811 6.0431,18.36524 l 6.0431,17.14062 h 33.5028 c 18.4265,0 33.5028,-0.42059 33.5028,-0.93359 0,-0.81707 -26.4438,-71.559 -48.5182,-129.79297 -4.1669,-10.9929 -12.8319,-33.84234 -19.2547,-50.77735 -6.4227,-16.93502 -12.0021,-31.12835 -12.3977,-31.53906 -0.3956,-0.41069 -19.7992,-0.84294 -43.1196,-0.96094 z m -0.068,56.4004 c 0.5823,-0.0392 1.9187,3.98908 8.9215,24.17578 3.7104,10.69581 9.3536,26.58456 12.5398,35.30859 3.1861,8.72403 5.4871,16.13887 5.1125,16.47656 -1.0951,0.98735 -53.0098,0.70425 -53.0098,-0.28906 0,-0.88667 24.5171,-71.55831 25.9231,-74.72461 0.2083,-0.46906 0.3188,-0.93418 0.5129,-0.94726 z"
       style="fill:#010132;stroke-width:1.13785"
       id="path22" /><path
       d="m 1242.3105,403.73478 -0.3858,71.30664 c -0.3504,64.83462 -0.575,71.751 -2.4842,76.22656 -4.8893,11.46185 -15.1708,17.78641 -30.8512,18.97852 -15.3651,1.16815 -27.6297,-3.32244 -34.0285,-12.46094 -5.8893,-8.41069 -5.882,-8.30321 -6.5899,-83.05273 l -0.6677,-70.53321 h -31.7562 -31.7563 l -0.3519,64.5918 c -0.4451,81.76385 0.5381,92.59754 9.9305,109.41211 12.5744,22.51098 34.0654,36.51974 63.8008,41.58789 12.2184,2.08251 49.0598,1.48837 59.9452,-0.9668 37.8077,-8.5275 60.0397,-28.78407 66.9061,-60.95898 1.3533,-6.34107 1.6935,-22.50595 1.6935,-80.75977 V 404.2758 l -11.6855,-0.0723 c -6.4261,-0.0403 -20.6914,-0.16318 -31.7011,-0.27148 z"
       style="fill:#010132;stroke-width:1.13785"
       id="path20" /><path
       d="m 1327.2843,403.28947 v 107.45117 107.45117 h 31.7562 31.7584 v -33.49219 -33.49218 h 15.4924 15.4923 l 16.1516,27.27929 c 8.8835,15.00382 17.686,30.05022 19.5599,33.43555 l 3.4063,6.15625 34.5669,0.0566 34.5669,0.0566 -2.9294,-4.5918 c -1.6119,-2.5254 -6.8884,-10.91198 -11.7236,-18.63671 -4.8352,-7.72475 -13.8137,-21.98066 -19.9521,-31.67969 -6.1384,-9.69904 -11.1598,-17.77746 -11.1598,-17.95313 0,-0.17568 3.5759,-2.20536 7.9465,-4.50976 10.0724,-5.3106 22.5989,-17.3299 27.6505,-26.53125 12.3041,-22.41141 12.1129,-50.75981 -0.4875,-72.52539 -8.1258,-14.03617 -25.1659,-27.14764 -42.5049,-32.70508 -14.3668,-4.60474 -19.6233,-4.93152 -85.7771,-5.35742 z m 63.5146,49.60351 h 25.7196 c 22.798,0 26.4471,0.24601 32.1335,2.16407 11.653,3.93074 16.9952,11.40136 16.9952,23.76562 0,12.44184 -6.0293,20.6286 -18.4641,25.06836 -5.9234,2.11488 -9.3788,2.42126 -31.5188,2.79297 l -24.8654,0.41797 V 479.9965 Z"
       style="fill:#010132;stroke-width:1.13785"
       id="path18" /><path
       d="m 1622.097,403.73478 -2.2998,5.94336 c -1.2653,3.26817 -12.2731,32.43776 -24.4627,64.82226 -12.1898,32.38451 -29.223,77.51445 -37.8523,100.28907 -8.6292,22.77448 -15.6915,41.85784 -15.6916,42.40625 2e-4,0.58423 13.5243,0.99609 32.6826,0.99609 h 32.6825 l 6.6514,-18.0957 6.6514,-18.09766 43.0539,-0.28125 43.0539,-0.2793 6.4903,18.37696 6.4903,18.37695 h 33.3566 c 18.3452,0 33.3544,-0.20305 33.3544,-0.45117 0,-0.4238 -49.5433,-133.25538 -70.2487,-188.3457 l -9.4408,-25.11914 -23.3689,-0.0195 c -12.8529,-0.0103 -31.8593,-0.13127 -42.2357,-0.26953 z m 42.1721,57.66016 c 0.076,-0.009 0.1366,0.0362 0.1802,0.14062 0.372,0.89131 6.1497,17.1786 12.8407,36.19336 6.6911,19.01475 12.6328,35.36946 13.2031,36.34375 0.7854,1.34214 0.3912,1.92755 -1.63,2.41602 -1.4674,0.35458 -13.5895,0.65115 -26.9362,0.66015 -26.1408,0.0159 -25.7559,0.10803 -23.123,-5.60742 1.5826,-3.43519 18.44,-51.21456 22.0314,-62.44336 1.4261,-4.4589 2.8612,-7.63351 3.4338,-7.70312 z"
       style="fill:#010132;stroke-width:1.13785"
       id="path16" /><path
       d="m 1842.7437,702.44336 c -1.5051,-0.009 -3.3072,0.0385 -5.5954,0.1166 -8.6178,0.29438 -10.7298,0.70167 -15.4416,2.97991 -7.4821,3.61762 -9.9882,6.5318 -10.6067,12.33266 -0.6399,5.99994 1.8818,10.58001 7.2439,13.15698 2.0898,1.0043 9.3343,2.87941 16.1006,4.16702 10.4398,1.98662 12.497,2.67194 13.5847,4.52818 3.9325,6.7117 -13.7214,8.61414 -18.5604,2.00009 -1.8689,-2.55449 -2.1725,-2.62752 -10.9409,-2.63333 l -9.0202,-0.005 0.7887,2.91028 c 2.1055,7.76922 7.8406,12.55809 17.6196,14.71009 7.5752,1.66706 20.8375,0.92917 27.3456,-1.52072 7.7107,-2.90262 11.2669,-7.04702 11.7973,-13.74486 0.3659,-4.62268 0.014,-5.98 -2.2626,-8.5786 -3.719,-4.25695 -7.9466,-5.95406 -21.1852,-8.50411 -10.8942,-2.09847 -14.3357,-3.64565 -14.3357,-6.44568 0,-1.81281 4.8122,-3.91114 8.9712,-3.91114 5.0126,0 8.1569,1.36399 9.5066,4.12492 1.0384,2.12396 1.4668,2.21267 9.4499,1.96124 l 8.3611,-0.26236 -0.3866,-2.68842 c -0.7561,-5.24595 -4.9541,-9.68642 -11.709,-12.38608 -4.3571,-1.74127 -6.2096,-2.27962 -10.7249,-2.30781 z"
       style="fill:#010132;stroke-width:1.01591"
       id="path31" /></g></svg>
