<?xml version="1.0" encoding="UTF-8" standalone="no"?>
<!-- Created with Inkscape (http://www.inkscape.org/) -->

<svg
   version="1.1"
   id="svg1"
   width="1920"
   height="1080"
   viewBox="0 0 1920 1080"
   sodipodi:docname="isotipo.svg"
   inkscape:version="1.4.2 (f4327f4, 2025-05-13)"
   xml:space="preserve"
   inkscape:export-filename="C:\Users\User\Desktop\Logos Aura\isotipo-beige.png"
   inkscape:export-xdpi="96"
   inkscape:export-ydpi="96"
   xmlns:inkscape="http://www.inkscape.org/namespaces/inkscape"
   xmlns:sodipodi="http://sodipodi.sourceforge.net/DTD/sodipodi-0.dtd"
   xmlns="http://www.w3.org/2000/svg"
   xmlns:svg="http://www.w3.org/2000/svg"><defs
     id="defs1"><inkscape:path-effect
       effect="bspline"
       id="path-effect52"
       is_visible="true"
       lpeversion="1.3"
       weight="33.333333"
       steps="2"
       helper_size="0"
       apply_no_weight="true"
       apply_with_weight="true"
       only_selected="false"
       uniform="false" /><inkscape:path-effect
       effect="bspline"
       id="path-effect3"
       is_visible="true"
       lpeversion="1.3"
       weight="33.333333"
       steps="2"
       helper_size="0"
       apply_no_weight="true"
       apply_with_weight="true"
       only_selected="false"
       uniform="false" /></defs><sodipodi:namedview
     id="namedview1"
     pagecolor="#505050"
     bordercolor="#eeeeee"
     borderopacity="1"
     inkscape:showpageshadow="0"
     inkscape:pageopacity="0"
     inkscape:pagecheckerboard="0"
     inkscape:deskcolor="#505050"
     inkscape:zoom="0.5"
     inkscape:cx="1089"
     inkscape:cy="419"
     inkscape:window-width="1920"
     inkscape:window-height="1009"
     inkscape:window-x="-8"
     inkscape:window-y="-8"
     inkscape:window-maximized="1"
     inkscape:current-layer="g1"
     showguides="false" /><g
     inkscape:groupmode="layer"
     inkscape:label="Image"
     id="g1"
     transform="matrix(0.92144707,0,0,1,-35.56129,0)"
     style="display:inline"><path
       style="fill:#fff6e3;fill-opacity:1;stroke-width:0.58604"
       d="m 1145.6737,722.33117 c -13.3561,-3.00882 -24.8988,-11.15868 -33.4652,-23.62842 -4.0747,-5.9315 -6.0282,-10.00691 -17.5192,-36.5496 -5.5415,-12.79991 -12.618,-29.04955 -15.7258,-36.1103 l -5.6503,-12.83774 -7.4566,13.01367 c -4.1011,7.15752 -11.5087,19.92816 -16.4612,28.3792 -4.9526,8.45105 -12.0418,20.58291 -15.7538,26.9597 -7.0165,12.0535 -9.5492,15.12747 -15.5386,18.85894 -6.7273,4.19123 -8.7753,4.49278 -31.0667,4.57431 l -19.70553,0.0721 -1.64201,-1.50459 c -0.90309,-0.82752 -1.642,-2.14797 -1.642,-2.93434 0,-0.78636 2.55413,-5.18967 5.67585,-9.78512 7.45033,-10.9676 24.85281,-37.96725 58.20549,-90.30487 14.9598,-23.47512 28.0373,-43.57835 29.0613,-44.67386 5.8068,-6.21291 10.8308,-8.99525 17.1747,-9.5113 6.8429,-0.55665 14.6954,3.40063 19.4578,9.80584 1.0248,1.37817 6.0519,12.31146 11.1715,24.29619 5.1196,11.98472 12.4588,28.83294 16.3093,37.44049 3.8506,8.60753 8.7225,19.6195 10.8263,24.47103 9.8281,22.66302 11.8668,26.83794 14.4716,29.63477 3.1702,3.40387 5.6396,4.51084 10.0624,4.51084 4.1504,0 7.9916,-1.51478 11.4152,-4.50156 4.0607,-3.54261 5.6358,-5.91153 21.7917,-32.77407 71.5821,-119.01997 119.323,-187.64364 154.2082,-221.66199 11.6109,-11.32235 21.0849,-18.7761 26.8283,-21.1073 9.9721,-4.04768 16.4662,3.8639 10.8814,13.25656 -1.1716,1.9704 -5.3187,7.42392 -9.2158,12.11894 -33.749,40.65898 -51.0022,68.8987 -122.7354,200.89007 -31.4313,57.83455 -37.3944,68.10623 -44.4039,76.48756 -5.7255,6.84593 -16.7178,15.60264 -23.4912,18.71364 -8.2807,3.80324 -13.0776,4.83198 -23.4663,5.03256 -6.2203,0.1201 -10.1369,-0.0761 -12.6015,-0.63133 z M 858.88855,703.7985 c -2.78808,-1.40787 -4.18645,-3.9056 -3.64873,-6.51729 0.3416,-1.65912 6.5138,-13.14428 22.17365,-41.26049 1.48182,-2.66051 4.80427,-8.67868 7.38322,-13.3737 5.20994,-9.48479 37.71702,-68.10383 72.74344,-131.17609 50.01667,-90.06537 69.67117,-125.00746 71.42827,-126.98664 2.1265,-2.39523 5.3597,-4.27104 9.2444,-5.36339 4.1043,-1.15406 62.8066,-1.15692 67.6701,-0.003 4.4017,1.04411 8.4643,3.27242 10.7895,5.91796 2.0213,2.2997 2.8664,4.22972 40.5362,92.57428 14.4139,33.80417 27.6964,64.91936 29.5167,69.14488 3.7027,8.59538 4.009,11.17793 1.8001,15.17608 -2.2318,4.03978 -22.218,41.33927 -29.2229,54.5379 -6.4001,12.05897 -8.014,13.9428 -11.9456,13.9428 -2.9028,0 -4.735,-0.84191 -5.9879,-2.75139 -0.5699,-0.8687 -14.3501,-32.93665 -30.6227,-71.26211 -33.5675,-79.05869 -41.8964,-98.52686 -42.2825,-98.83118 -0.1489,-0.11731 -1.4144,1.91152 -2.8124,4.50848 -6.699,12.44468 -53.7303,98.39609 -75.60689,138.17423 -16.1931,29.44387 -23.07788,42.05719 -27.8015,50.93389 -25.00463,46.98909 -25.87562,48.34532 -33.4941,52.15338 l -3.25292,1.62597 -32.16987,-0.01 c -30.99083,-0.009 -32.25298,-0.0515 -34.43757,-1.15469 z"
       id="path2" /><path
       style="fill:#fff6e3;fill-opacity:1"
       d="m 243.04373,775.24084 c -9.96387,-4.04115 -14.1554,-16.16962 -19.61077,-33.23969 -5.45538,-17.07008 -12.17403,-39.07994 -8.77903,-60.10483 3.395,-21.02489 16.90327,-41.0623 27.16384,-42.91296 10.26058,-1.85066 17.27249,14.48597 23.90192,30.42787 6.62942,15.94191 12.87618,31.48868 17.09324,42.85318 4.21706,11.36451 6.40428,18.54633 6.34379,27.67021 -0.0605,9.12389 -2.36865,20.18884 -11.39102,27.74493 -9.02236,7.55608 -24.75809,11.60245 -34.72197,7.56129 z"
       id="path3"
       inkscape:path-effect="#path-effect3"
       inkscape:original-d="m 237.27148,783.32846 c -4.19162,-12.12877 -8.38314,-24.25724 -12.57484,-36.38621 -6.71905,-22.01118 -13.43771,-44.02104 -20.15677,-66.03224 13.50906,-20.03858 27.01733,-40.07599 40.52633,-60.11448 7.01215,16.33717 14.02406,32.6738 21.0361,49.01072 6.24681,15.54689 12.49357,31.09366 18.74041,46.64062 2.18728,7.18205 4.37449,14.36387 6.56181,21.54601 -2.3083,11.06563 -4.61645,22.13058 -6.92475,33.19621 -15.73643,4.04654 -31.47216,8.09291 -47.20829,12.13937 z"
       transform="matrix(0.72578242,0,0,0.80960502,791.17629,76.025952)"
       sodipodi:nodetypes="ccccccccc" /></g></svg>
