<?xml version="1.0" encoding="UTF-8" standalone="no"?>
<!-- Created with Inkscape (http://www.inkscape.org/) -->

<svg
   version="1.1"
   id="svg1"
   width="1920"
   height="1080"
   viewBox="0 0 1920 1080"
   sodipodi:docname="logo-oficila.svg"
   inkscape:version="1.4.2 (f4327f4, 2025-05-13)"
   xml:space="preserve"
   xmlns:inkscape="http://www.inkscape.org/namespaces/inkscape"
   xmlns:sodipodi="http://sodipodi.sourceforge.net/DTD/sodipodi-0.dtd"
   xmlns="http://www.w3.org/2000/svg"
   xmlns:svg="http://www.w3.org/2000/svg"><defs
     id="defs1"><inkscape:path-effect
       effect="bspline"
       id="path-effect52"
       is_visible="true"
       lpeversion="1.3"
       weight="33.333333"
       steps="2"
       helper_size="0"
       apply_no_weight="true"
       apply_with_weight="true"
       only_selected="false"
       uniform="false" /><inkscape:path-effect
       effect="bspline"
       id="path-effect3"
       is_visible="true"
       lpeversion="1.3"
       weight="33.333333"
       steps="2"
       helper_size="0"
       apply_no_weight="true"
       apply_with_weight="true"
       only_selected="false"
       uniform="false" /></defs><sodipodi:namedview
     id="namedview1"
     pagecolor="#505050"
     bordercolor="#eeeeee"
     borderopacity="1"
     inkscape:showpageshadow="0"
     inkscape:pageopacity="0"
     inkscape:pagecheckerboard="0"
     inkscape:deskcolor="#505050"
     inkscape:zoom="1.4142136"
     inkscape:cx="1491.6418"
     inkscape:cy="863.02383"
     inkscape:window-width="1920"
     inkscape:window-height="1009"
     inkscape:window-x="-8"
     inkscape:window-y="-8"
     inkscape:window-maximized="1"
     inkscape:current-layer="g1"
     showguides="false" /><g
     inkscape:groupmode="layer"
     inkscape:label="Image"
     id="g1"
     transform="matrix(0.92144707,0,0,1,-35.56129,0)"
     style="display:inline"><rect
       style="display:inline;fill:#010132;fill-opacity:1;stroke:none;stroke-width:1.09581"
       id="rect1"
       width="2075.1804"
       height="786.30273"
       x="43.050674"
       y="135.56348"
       ry="244.25"
       rx="286.99054" /><path
       d="m 1055.8829,272.60547 c -2.6836,-0.0213 -5.6717,0.53845 -8.8707,1.79492 -9.8263,3.85946 -26.0354,16.20046 -45.9005,34.94531 -59.6849,56.31948 -141.36474,169.92971 -263.83433,366.97461 -27.64111,44.4726 -30.33683,48.39475 -37.28426,54.25977 -5.85738,4.9448 -12.42942,7.45117 -19.53025,7.45117 -7.56709,0 -11.79175,-1.83148 -17.21562,-7.4668 -4.45658,-4.63033 -7.9447,-11.54247 -24.75938,-49.0625 -3.59956,-8.032 -11.93335,-26.26336 -18.52131,-40.51367 -6.58794,-14.25032 -19.1459,-42.14292 -27.9049,-61.98437 -8.759,-19.84146 -17.35949,-37.94296 -19.11268,-40.22461 -8.14819,-10.60422 -21.58344,-17.15594 -33.29088,-16.23438 -10.85365,0.85436 -19.44959,5.46219 -29.3844,15.74805 -1.75178,1.81367 -24.12551,35.09448 -49.72012,73.95898 -57.06303,86.64817 -86.83762,131.34832 -99.58436,149.50586 -5.34094,7.60806 -9.71002,14.89735 -9.71002,16.19922 0,1.30188 1.26341,3.48937 2.80851,4.85938 l 2.81063,2.49023 33.71268,-0.11914 c 38.13832,-0.13498 41.64418,-0.63538 53.15391,-7.57422 10.24716,-6.17768 14.57992,-11.26539 26.58438,-31.2207 6.35083,-10.55717 18.47985,-30.64354 26.95319,-44.63477 8.47333,-13.99122 21.14691,-35.1327 28.16349,-46.98242 l 12.75592,-21.54492 9.66763,21.2539 c 5.31698,11.68951 17.42366,38.59217 26.90444,59.78321 19.65994,43.94307 23.00218,50.6898 29.97366,60.50976 14.65611,20.64443 34.40448,34.13591 57.25539,39.11719 4.21662,0.91918 10.91856,1.24375 21.56085,1.04492 17.77405,-0.33207 25.98056,-2.03357 40.14788,-8.33008 11.5887,-5.15045 30.39674,-19.64857 40.19238,-30.98242 11.99262,-13.87581 22.19399,-30.88024 75.96959,-126.6289 C 962.60172,430.47819 992.12,383.72556 1049.861,316.41211 c 6.6676,-7.7729 13.7633,-16.80234 15.7679,-20.06445 7.7635,-12.63448 1.8829,-23.64981 -9.746,-23.74219 z"
       style="fill:#64011e;stroke-width:0.986307;fill-opacity:1"
       id="path7" /><path
       d="m 602.60892,245.68359 c -8.32076,-1.91035 -108.7543,-1.90476 -115.7762,0.006 -6.64642,1.80846 -12.17847,4.91346 -15.81666,8.87891 -3.00626,3.27665 -36.63373,61.1256 -122.20715,210.23437 -59.92658,104.42003 -115.54241,201.46728 -124.45608,217.16993 -4.41232,7.7729 -10.09774,17.73598 -12.63298,22.14062 -26.79239,46.54812 -37.35054,65.56377 -37.93498,68.31055 -0.91999,4.32381 1.47218,8.45824 6.2423,10.78906 3.73759,1.82635 5.89717,1.89681 58.9193,1.91211 l 55.03826,0.0156 5.56614,-2.6914 c 13.03442,-6.30449 14.52384,-8.5504 57.30415,-86.34375 8.08162,-14.69592 19.86185,-35.57808 47.56657,-84.32422 37.42856,-65.85517 117.89326,-208.15293 129.35453,-228.75586 2.36372,-4.24906 4.50742,-7.57873 4.80308,-7.46875 0.001,5.4e-4 0.005,0.003 0.006,0.004 0,0 0.002,0.002 0.002,0.002 0.66059,0.50382 14.91042,32.73455 72.34078,163.62109 27.84064,63.45017 51.41784,116.54033 52.39297,117.97852 2.14343,3.16127 5.27773,4.55469 10.24416,4.55469 6.72643,0 9.48759,-3.11962 20.43745,-23.08399 11.98471,-21.85115 46.17927,-83.60095 49.99779,-90.28906 3.77918,-6.61919 3.25509,-10.89482 -3.07982,-25.125 -3.11427,-6.99561 -25.83936,-58.50973 -50.50014,-114.47461 -64.44902,-146.25988 -65.89394,-149.45442 -69.35211,-153.26172 -3.97822,-4.37985 -10.92906,-8.07025 -18.45984,-9.79883 z"
       style="fill:#64011e;stroke-width:0.986307;fill-opacity:1"
       id="path6" /><path
       style="fill:#64011e;fill-opacity:1"
       d="m 243.04373,775.24084 c -9.96387,-4.04115 -14.1554,-16.16962 -19.61077,-33.23969 -5.45538,-17.07008 -12.17403,-39.07994 -8.77903,-60.10483 3.395,-21.02489 16.90327,-41.0623 27.16384,-42.91296 10.26058,-1.85066 17.27249,14.48597 23.90192,30.42787 6.62942,15.94191 12.87618,31.48868 17.09324,42.85318 4.21706,11.36451 6.40428,18.54633 6.34379,27.67021 -0.0605,9.12389 -2.36865,20.18884 -11.39102,27.74493 -9.02236,7.55608 -24.75809,11.60245 -34.72197,7.56129 z"
       id="path3"
       transform="matrix(1.2417383,0,0,1.3403511,51.154765,-256.10313)"
       sodipodi:nodetypes="ccccccccc"
       inkscape:original-d="m 237.27148,783.32846 c -4.19162,-12.12877 -8.38314,-24.25724 -12.57484,-36.38621 -6.71905,-22.01118 -13.43771,-44.02104 -20.15677,-66.03224 13.50906,-20.03858 27.01733,-40.07599 40.52633,-60.11448 7.01215,16.33717 14.02406,32.6738 21.0361,49.01072 6.24681,15.54689 12.49357,31.09366 18.74041,46.64062 2.18728,7.18205 4.37449,14.36387 6.56181,21.54601 -2.3083,11.06563 -4.61645,22.13058 -6.92475,33.19621 -15.73643,4.04654 -31.47216,8.09291 -47.20829,12.13937 z"
       inkscape:path-effect="#path-effect3" /><path
       d="m 1957.0351,648.76584 v 6.13843 6.13841 h 10.2218 10.2213 v 19.73112 19.73109 h 9.6217 9.6199 V 680.7738 661.04268 h 10.2233 10.2217 v -6.13841 -6.13843 h -30.0649 z"
       style="fill:#fff6e3;fill-opacity:1;stroke-width:1.02695"
       id="path14" /><path
       d="m 1957.3257,586.93516 v 27.01417 27.01419 h 9.0872 9.0876 v -8.75752 -8.7575 l 3.886,0.28806 c 3.5126,0.25931 4.4776,1.08096 10.0196,8.52905 l 6.1315,8.24098 10.657,0.26489 10.6575,0.26653 -3.2995,-4.38704 c -5.018,-6.66915 -8.0528,-10.59544 -9.8536,-12.74721 -1.5031,-1.79646 -1.2884,-2.10273 2.7093,-3.88543 11.7579,-5.24352 11.9914,-22.10393 0.3987,-28.78719 -5.8197,-3.35494 -12.549,-4.24739 -32.2149,-4.27281 z m 18.1748,12.82005 h 7.6637 c 6.4449,0 8.0826,0.33848 10.2982,2.12069 3.305,2.65894 3.3434,5.19391 0.1252,8.28735 -2.2476,2.15952 -3.3283,2.41369 -10.2982,2.41369 h -7.7879 v -6.41005 z"
       style="fill:#fff6e3;fill-opacity:1;stroke-width:1.05333"
       id="path12" /><path
       d="m 1991.5757,404.77237 c -1.5616,-0.01 -3.4314,0.0374 -5.8055,0.11338 -8.9419,0.28624 -11.1334,0.68226 -16.0222,2.89752 -7.7634,3.51761 -10.3637,6.35123 -11.0055,11.99171 -0.6639,5.83406 1.9524,10.2875 7.5162,12.79323 2.1685,0.97654 9.6853,2.7998 16.7059,4.05182 10.8324,1.93169 12.9669,2.59806 14.0954,4.40298 4.0804,6.52615 -14.2373,8.37599 -19.2581,1.94481 -1.9392,-2.48387 -2.2542,-2.55489 -11.3524,-2.56054 l -9.3591,-0.005 0.8183,2.82983 c 2.1846,7.55443 8.1353,12.2109 18.282,14.30339 7.86,1.62098 21.6209,0.9035 28.3736,-1.47866 8.0006,-2.82237 11.6904,-6.85222 12.2409,-13.36488 0.3794,-4.49487 0.015,-5.81466 -2.3478,-8.34142 -3.8589,-4.13928 -8.2451,-5.78946 -21.9816,-8.269 -11.3037,-2.04046 -14.8746,-3.54486 -14.8746,-6.26748 0,-1.76268 4.9931,-3.80301 9.3085,-3.80301 5.2011,0 8.4633,1.32627 9.8639,4.01088 1.0774,2.06524 1.5219,2.1515 9.8053,1.90702 l 8.6754,-0.25512 -0.4013,-2.61408 c -0.7845,-5.10093 -5.1403,-9.41862 -12.1491,-12.04364 -4.5209,-1.69314 -6.443,-2.21661 -11.1282,-2.24402 z"
       style="fill:#fff6e3;fill-opacity:1;stroke-width:1.02041"
       id="path11" /><path
       d="m 1957.8075,465.79287 v 27.14784 27.14953 h 9.9675 9.9693 v -7.82262 -7.82259 l 7.7884,-0.006 c 14.4102,-0.01 23.3388,-3.22292 28.036,-10.09019 4.8771,-7.12992 3.1226,-17.02142 -4.009,-22.60603 -5.7881,-4.53278 -14.0191,-5.95096 -34.5347,-5.95096 z m 19.9368,12.88349 h 6.8544 c 5.1917,0 7.4558,0.44734 9.3439,1.8417 2.9047,2.14538 3.3121,7.10347 0.7918,9.6493 -1.2431,1.25555 -3.762,1.82789 -9.3458,2.12618 l -7.6443,0.40925 v -7.01237 z"
       style="fill:#fff6e3;fill-opacity:1;stroke-width:1.07084"
       id="path9"
       inkscape:transform-center-x="-0.50585092"
       inkscape:transform-center-y="-4.1450407" /><path
       d="m 1986.3343,526.91715 c -3.1812,0.0482 -6.3772,0.4499 -9.4538,1.23351 -8.1795,2.08351 -16.7056,9.06703 -19.0071,15.56838 -5.5812,15.76761 2.8282,30.69733 19.6129,34.81715 10.6655,2.6179 24.1321,0.0138 31.7948,-6.14876 6.3668,-5.12068 8.0905,-8.75842 8.5756,-18.09182 0.4839,-9.30642 -0.9572,-13.27564 -6.9048,-19.01888 -5.6593,-5.46463 -15.0731,-8.50396 -24.6176,-8.35958 z m 1.6675,12.0794 c 8.2175,0.15235 13.8445,5.89521 13.8445,14.41733 0,5.66113 -2.3932,10.02565 -6.581,12.00026 -4.919,2.31921 -9.6647,2.62147 -13.6559,0.87062 -7.5374,-3.30613 -10.799,-11.82868 -7.4286,-19.40795 2.273,-5.11047 5.7993,-7.38641 12.1455,-7.83588 0.5698,-0.0404 1.1279,-0.0545 1.6755,-0.0444 z"
       style="fill:#fff6e3;fill-opacity:1;stroke-width:0.92912"
       id="path8" /><path
       d="m 1866.6817,646.0922 c -8.9824,0.006 -17.9726,1.34785 -26.1697,4.02344 -9.9038,3.23264 -20.3228,12.30959 -22.7655,19.83203 -2.2026,6.78221 -2.049,17.1992 0.3285,22.14648 5.5075,11.45924 15.3078,15.94918 49.8288,22.83204 14.616,2.91413 19.6991,5.95632 19.5129,11.67187 -0.2252,6.9069 -7.5931,10.32489 -20.6847,9.59766 -10.2228,-0.56787 -17.4763,-4.46989 -18.6759,-10.04883 l -0.8172,-3.80078 h -16.5074 c -10.1678,0 -16.8174,0.4338 -17.3112,1.13086 -1.236,1.74466 1.8327,11.85513 5.1212,16.875 5.6333,8.59915 17.3708,15.04934 32.0687,17.62304 7.2278,1.26564 26.4964,1.27454 34.1056,0.0156 21.601,-3.57379 35.8776,-16.59927 35.8581,-32.71484 -0.023,-18.55196 -11.2632,-26.85696 -45.5093,-33.62305 -15.9244,-3.14618 -19.8501,-4.37705 -23.5256,-7.38086 -3.3229,-2.7154 -3.5626,-6.34468 -0.6748,-10.18945 2.795,-3.72127 8.7188,-5.75696 16.7352,-5.75196 8.4122,0.005 14.1089,2.93324 16.871,8.67188 l 2.0547,4.26758 15.169,0.01 15.1712,0.0117 v -3.04492 c 0,-11.5043 -10.4318,-23.71569 -24.0601,-28.16406 -8.1653,-2.66516 -17.1413,-3.99596 -26.1235,-3.99024 z"
       style="fill:#fff6e3;fill-opacity:1;stroke-width:1.15671"
       id="path30" /><path
       d="m 1747.2023,646.55705 c -26.2308,0.0589 -43.3276,8.92704 -48.9287,25.38085 -3.9546,11.61789 -1.6917,20.28732 7.4148,28.39258 7.3514,6.54306 13.6608,8.83421 37.1043,13.47852 17.79,3.52433 23.0253,5.62604 24.7657,9.94336 3.7703,9.35234 -11.3206,15.56557 -27.9944,11.52539 -5.0821,-1.23144 -12.1768,-7.52852 -12.1768,-10.8086 0,-2.00177 -0.9212,-2.12304 -16.1,-2.12304 h -16.0978 v 4.1289 c 0,13.90939 13.0365,26.36894 32.3271,30.89454 8.9335,2.09586 30.5897,2.10894 40.7231,0.0254 19.8678,-4.08505 32.1831,-16.25405 32.1956,-31.8086 0.011,-9.37944 -1.5833,-13.84481 -6.8387,-19.20117 -5.9742,-6.08883 -16.611,-10.36955 -35.455,-14.26953 -8.6278,-1.78561 -17.2654,-3.76836 -19.1951,-4.40625 -9.5334,-3.15118 -11.9307,-10.11511 -5.3688,-15.59961 3.0408,-2.54141 5.0626,-3.19014 11.1495,-3.57422 4.3816,-0.2765 8.9685,0.0849 11.1714,0.88086 4.5261,1.6356 9.8789,6.94431 9.8789,9.79688 0,1.94461 1.0418,2.07812 16.2402,2.07812 h 16.2401 l -0.8608,-5.13281 c -3.3122,-19.71437 -20.1936,-29.66896 -50.1946,-29.60156 z"
       style="fill:#fff6e3;fill-opacity:1;stroke-width:1.15671"
       id="path29" /><path
       d="m 1589.9241,648.87931 v 54.01953 54.01953 h 43.9628 43.965 v -11.88476 -11.88477 h -27.8651 -27.8649 v -9.72265 -9.72266 h 26.6646 26.6646 l -0.1753,-10.80469 -0.173,-10.80273 h -26.4916 -26.4893 v -9.1836 -9.18359 h 27.8649 27.8651 v -12.42383 -12.42578 h -43.965 z"
       style="fill:#fff6e3;fill-opacity:1;stroke-width:1.15671"
       id="path28" /><path
       d="m 1460.5088,648.87931 0.3329,54.01953 0.3308,54.01953 h 15.4953 15.4932 l -0.3461,-31.87304 c -0.1901,-17.52957 -0.03,-31.87145 0.355,-31.8711 0.3845,3.3e-4 1.617,1.58053 2.7402,3.51172 1.1232,1.93118 10.9266,16.15207 21.7843,31.60156 l 19.7404,28.08985 16.8362,0.30078 16.8381,0.30078 v -54.04883 -54.05078 h -15.5349 -15.5327 l 0.3637,31.33203 c 0.3332,28.73855 -0.1454,34.64642 -2.3854,29.43946 -0.7267,-1.6893 -13.0838,-19.68417 -34.4737,-50.20899 l -7.3623,-10.50781 -17.3374,-0.0273 z"
       style="fill:#fff6e3;fill-opacity:1;stroke-width:1.15671"
       id="path27" /><path
       d="m 1360.816,648.87931 v 54.01953 54.01953 h 42.7251 42.7252 v -12.42382 -12.42579 h -26.0052 -26.0076 v -41.59375 -41.5957 h -16.7177 z"
       style="fill:#fff6e3;fill-opacity:1;stroke-width:1.15671"
       id="path26" /><path
       d="m 1261.743,648.87931 v 54.01953 54.01953 h 42.1053 42.1074 v -12.42382 -12.42579 h -26.0074 -26.0053 v -41.59375 -41.5957 h -16.1 z"
       style="fill:#fff6e3;fill-opacity:1;stroke-width:1.15671"
       id="path25" /><path
       d="m 1155.24,648.87931 v 54.01953 54.01953 h 43.9628 43.9649 v -11.88476 -11.88477 h -27.8649 -27.8651 v -9.72265 -9.72266 h 26.0076 26.0053 v -10.80469 -10.80273 h -26.0053 -26.0076 v -9.1836 -9.18359 h 27.2453 27.245 v -12.42383 -12.42578 h -43.3451 z"
       style="fill:#fff6e3;fill-opacity:1;stroke-width:1.15671"
       id="path24" /><path
       d="m 1125.5197,648.66642 c -9.5368,0.17988 -17.3398,0.47442 -17.3398,0.6543 0,0.17989 -2.709,11.70024 -6.0194,25.60156 -3.3105,13.9013 -7.0522,29.77308 -8.315,35.26953 -1.2627,5.49647 -2.733,9.99414 -3.2682,9.99414 -0.5353,0 -0.9698,-0.6088 -0.9573,-1.35156 0.011,-0.74277 -3.9426,-14.96365 -8.7838,-31.60156 -4.8414,-16.6379 -9.3295,-32.07249 -9.9733,-34.30078 l -1.1695,-4.05274 h -16.0519 c -8.8285,0 -16.0517,0.15142 -16.0517,0.33594 0,0.29186 -14.2669,48.48758 -19.4843,65.82226 -2.0751,6.89406 -3.3657,7.22311 -4.4094,1.12305 -0.3838,-2.24278 -3.4701,-15.50283 -6.8584,-29.4668 -3.3883,-13.96396 -6.8098,-28.18484 -7.6053,-31.60156 l -1.448,-6.21289 h -17.24997 c -14.76514,0 -17.24991,0.24243 -17.24991,1.67774 0,0.92228 2.55266,10.28059 5.67112,20.79687 3.11846,10.51628 8.12177,27.38474 11.1188,37.48633 2.99683,10.10158 7.49801,25.06338 10.00396,33.24805 l 4.5562,14.88281 19.8718,-0.29688 19.872,-0.29687 9.3359,-32.0586 c 5.1349,-17.63311 9.5203,-31.89935 9.7475,-31.70117 0.4282,0.37353 16.6002,54.58918 18.1329,60.78906 l 0.8675,3.51172 h 19.6681 19.6682 l 1.2202,-4.05078 c 6.4693,-21.49893 29.8387,-102.43321 29.8387,-103.3457 0,-0.81648 -5.3714,-1.08116 -17.3377,-0.85547 z"
       style="fill:#fff6e3;fill-opacity:1;stroke-width:1.15671"
       id="path23" /><path
       d="m 1090.9869,404.1879 c -27.0229,-0.13232 -37.5077,-0.12552 -41.8399,0.41216 -1.1459,0.14222 -1.7186,0.42679 -2.1874,0.65802 -0.4351,0.21463 -0.7978,0.37108 -1.0177,0.631 -1.6089,1.90303 -81.41758,210.09262 -81.41758,211.4707 0,0.45777 15.51427,0.83203 34.47808,0.83203 h 34.4802 l 1.5355,-4.5918 c 0.8447,-2.5254 3.7577,-10.79099 6.4728,-18.36718 l 4.9374,-13.77344 h 45.1172 c 32.8324,0 45.1171,0.33415 45.1171,1.22656 0,0.67448 2.8102,8.93811 6.2451,18.36524 l 6.245,17.14062 h 34.6226 c 19.0424,0 34.6226,-0.42059 34.6226,-0.93359 0,-0.81707 -27.3277,-71.559 -50.1399,-129.79297 -4.3061,-10.9929 -13.2608,-33.84234 -19.8982,-50.77735 -6.6373,-16.93502 -12.4032,-31.12835 -12.8121,-31.53906 -0.4088,-0.41069 -20.461,-0.84293 -44.5608,-0.96094 z m -0.07,56.4004 c 0.6018,-0.0392 1.9829,3.98908 9.2198,24.17578 3.8344,10.69581 9.6661,26.58456 12.9588,35.30859 3.2926,8.72403 5.6705,16.13887 5.2834,16.47656 -1.1317,0.98735 -54.7816,0.70425 -54.7816,-0.28906 0,-0.88667 25.3366,-71.55831 26.7895,-74.72461 0.2153,-0.46906 0.3295,-0.93418 0.5301,-0.94726 z"
       style="fill:#fff6e3;fill-opacity:1;stroke-width:1.15671"
       id="path22"
       sodipodi:nodetypes="ssssssccccssscsssssssssssss" /><path
       d="m 1364.6449,403.73478 -0.3987,71.30664 c -0.3622,64.83462 -0.5942,71.751 -2.5672,76.22656 -5.0528,11.46185 -15.6779,17.78641 -31.8824,18.97852 -15.8786,1.16815 -28.5532,-3.32244 -35.1658,-12.46094 -6.0862,-8.41069 -6.0787,-8.30321 -6.8102,-83.05273 l -0.6901,-70.53321 h -32.8176 -32.8176 l -0.3637,64.5918 c -0.4599,81.76385 0.5561,92.59754 10.2623,109.41211 12.9948,22.51098 35.2041,36.51974 65.9333,41.58789 12.6269,2.08251 50.6996,1.48837 61.9489,-0.9668 39.0714,-8.5275 62.0463,-28.78407 69.1422,-60.95898 1.3987,-6.34107 1.7501,-22.50595 1.7501,-80.75977 V 404.2758 l -12.076,-0.0723 c -6.6409,-0.0403 -21.383,-0.16318 -32.7606,-0.27148 z"
       style="fill:#fff6e3;fill-opacity:1;stroke-width:1.15671"
       id="path20" /><path
       d="m 1452.4588,403.28947 v 107.45117 107.45117 h 32.8176 32.8199 v -33.49219 -33.49218 h 16.0101 16.0101 l 16.6915,27.27929 c 9.1804,15.00382 18.2772,30.05022 20.2136,33.43555 l 3.5202,6.15625 35.7222,0.0566 35.7223,0.0566 -3.0273,-4.5918 c -1.6659,-2.5254 -7.1187,-10.91198 -12.1155,-18.63671 -4.9967,-7.72475 -14.2753,-21.98066 -20.6189,-31.67969 -6.3436,-9.69904 -11.5328,-17.77746 -11.5328,-17.95313 0,-0.17568 3.6954,-2.20536 8.2121,-4.50976 10.409,-5.3106 23.3542,-17.3299 28.5746,-26.53125 12.7154,-22.41141 12.5178,-50.75981 -0.5038,-72.52539 -8.3974,-14.03617 -26.0069,-27.14764 -43.9255,-32.70508 -14.847,-4.60474 -20.2791,-4.93152 -88.644,-5.35742 z m 65.6375,49.60351 h 26.5792 c 23.5599,0 27.3311,0.24601 33.2075,2.16407 12.0425,3.93074 17.5633,11.40136 17.5633,23.76562 0,12.44184 -6.2309,20.6286 -19.0813,25.06836 -6.1215,2.11488 -9.6923,2.42126 -32.5722,2.79297 l -25.6965,0.41797 V 479.9965 Z"
       style="fill:#fff6e3;fill-opacity:1;stroke-width:1.15671"
       id="path18" /><path
       d="m 1757.1251,403.73478 -2.3766,5.94336 c -1.3077,3.26817 -12.6833,32.43776 -25.2804,64.82226 -12.5972,32.38451 -30.1997,77.51445 -39.1175,100.28907 -8.9176,22.77448 -16.2159,41.85784 -16.216,42.40625 2e-4,0.58423 13.9764,0.99609 33.775,0.99609 h 33.7748 l 6.8738,-18.0957 6.8736,-18.09766 44.4929,-0.28125 44.493,-0.2793 6.7072,18.37696 6.7072,18.37695 h 34.4715 c 18.9583,0 34.4693,-0.20305 34.4693,-0.45117 0,-0.4238 -51.1993,-133.25538 -72.5967,-188.3457 l -9.7563,-25.11914 -24.1501,-0.0195 c -13.2824,-0.0103 -32.9241,-0.13127 -43.6473,-0.26953 z m 43.5816,57.66016 c 0.079,-0.009 0.1412,0.0362 0.1863,0.14062 0.3844,0.89131 6.3552,17.1786 13.2698,36.19336 6.9148,19.01475 13.0551,35.36946 13.6444,36.34375 0.8117,1.34214 0.4042,1.92755 -1.6845,2.41602 -1.5164,0.35458 -14.0436,0.65115 -27.8365,0.66015 -27.0145,0.0159 -26.6167,0.10803 -23.8958,-5.60742 1.6355,-3.43519 19.0564,-51.21456 22.7678,-62.44336 1.4737,-4.4589 2.9568,-7.63351 3.5485,-7.70312 z"
       style="fill:#fff6e3;fill-opacity:1;stroke-width:1.15671"
       id="path16" /><path
       d="m 1991.658,706.93255 c -1.5554,-0.009 -3.4177,0.0359 -5.7823,0.10865 -8.9059,0.27432 -11.0884,0.65386 -15.9577,2.77686 -7.7323,3.37111 -10.3221,6.08673 -10.9613,11.49231 -0.6612,5.5911 1.9448,9.85909 7.4861,12.26047 2.1596,0.93586 9.6463,2.6832 16.6387,3.88307 10.7887,1.85125 12.9147,2.48987 14.0388,4.21963 4.0638,6.25436 -14.1801,8.02718 -19.1808,1.86381 -1.9314,-2.38043 -2.2452,-2.44848 -11.3066,-2.4539 l -9.3218,-0.005 0.8152,2.71197 c 2.1758,7.23982 8.1026,11.70238 18.2085,13.70774 7.8284,1.55347 21.534,0.86586 28.2596,-1.4171 7.9685,-2.70483 11.6435,-6.56683 12.1915,-12.80828 0.3782,-4.30769 0.015,-5.57252 -2.3381,-7.99406 -3.8434,-3.96687 -8.2122,-5.54834 -21.8934,-7.92463 -11.2583,-1.95548 -14.8148,-3.39724 -14.8148,-6.00647 0,-1.68929 4.9731,-3.64463 9.271,-3.64463 5.1802,0 8.4296,1.27105 9.8244,3.84384 1.0731,1.97924 1.5158,2.0619 9.7657,1.82761 l 8.6406,-0.24449 -0.3995,-2.50522 c -0.7815,-4.88851 -5.1197,-9.0264 -12.1004,-11.54209 -4.5027,-1.62263 -6.4171,-2.1243 -11.0834,-2.15057 z"
       style="fill:#fff6e3;fill-opacity:1;stroke-width:0.996946"
       id="path31" /></g></svg>
