<?xml version="1.0" encoding="UTF-8" standalone="no"?>
<!-- Created with Inkscape (http://www.inkscape.org/) -->

<svg
   version="1.1"
   id="svg1"
   width="1920"
   height="1080"
   viewBox="0 0 1920 1080"
   sodipodi:docname="logo-oficial.svg"
   inkscape:version="1.4.2 (f4327f4, 2025-05-13)"
   xml:space="preserve"
   inkscape:export-filename="C:\Users\User\Desktop\Logos Aura\auramain.png"
   inkscape:export-xdpi="96"
   inkscape:export-ydpi="96"
   xmlns:inkscape="http://www.inkscape.org/namespaces/inkscape"
   xmlns:sodipodi="http://sodipodi.sourceforge.net/DTD/sodipodi-0.dtd"
   xmlns="http://www.w3.org/2000/svg"
   xmlns:svg="http://www.w3.org/2000/svg"><defs
     id="defs1"><rect
       x="847.99998"
       y="265.99999"
       width="116"
       height="95.999998"
       id="rect27" /><rect
       x="865.49868"
       y="746.70474"
       width="633.56766"
       height="212.13203"
       id="rect4" /><rect
       x="870.99998"
       y="687.99998"
       width="59.999998"
       height="60.999998"
       id="rect3" /><inkscape:path-effect
       effect="bspline"
       id="path-effect52"
       is_visible="true"
       lpeversion="1.3"
       weight="33.333333"
       steps="2"
       helper_size="0"
       apply_no_weight="true"
       apply_with_weight="true"
       only_selected="false"
       uniform="false" /><inkscape:path-effect
       effect="bspline"
       id="path-effect3"
       is_visible="true"
       lpeversion="1.3"
       weight="33.333333"
       steps="2"
       helper_size="0"
       apply_no_weight="true"
       apply_with_weight="true"
       only_selected="false"
       uniform="false" /></defs><sodipodi:namedview
     id="namedview1"
     pagecolor="#505050"
     bordercolor="#eeeeee"
     borderopacity="1"
     inkscape:showpageshadow="0"
     inkscape:pageopacity="0"
     inkscape:pagecheckerboard="0"
     inkscape:deskcolor="#505050"
     inkscape:zoom="0.3535534"
     inkscape:cx="1204.9099"
     inkscape:cy="408.70771"
     inkscape:window-width="1920"
     inkscape:window-height="1009"
     inkscape:window-x="-8"
     inkscape:window-y="-8"
     inkscape:window-maximized="1"
     inkscape:current-layer="g1"
     showguides="false" /><g
     inkscape:groupmode="layer"
     inkscape:label="Image"
     id="g1"
     transform="matrix(0.92144707,0,0,1,-35.56129,0)"
     style="display:inline"><rect
       style="display:inline;fill:#fff6e3;fill-opacity:1;stroke:none;stroke-width:1.28285"
       id="rect1"
       width="2075.1804"
       height="1077.6307"
       x="43.881958"
       y="-2.7561913"
       ry="334.74551"
       rx="291.60718" /><path
       d="m 944.01083,324.17954 c -2.12024,-0.0185 -4.48063,0.43007 -7.00833,1.43365 -7.7624,3.08259 -20.56847,12.93958 -36.26243,27.91149 -47.15322,44.98338 -111.68294,135.72597 -208.43773,293.10934 -21.83708,35.52105 -23.96691,38.65375 -29.45566,43.33826 -4.62758,3.94951 -9.81939,5.95142 -15.42944,5.95142 -5.9783,0 -9.31592,-1.46286 -13.60086,-5.96389 -3.5207,-3.69836 -6.2765,-9.21922 -19.56068,-39.18715 -2.84377,-6.41527 -9.42767,-20.97702 -14.63246,-32.35898 -5.20478,-11.382 -15.12572,-33.66034 -22.04575,-49.50808 -6.91975,-15.84773 -13.71446,-30.30573 -15.09956,-32.12812 -6.43731,-8.46977 -17.05153,-13.70273 -26.30084,-12.9667 -8.57471,0.6824 -15.36573,4.36275 -23.21458,12.57825 -1.38393,1.44861 -19.05992,28.03061 -39.28043,59.07241 -45.08157,69.20747 -68.60443,104.91034 -78.67478,119.41308 -4.2195,6.07668 -7.67119,11.8988 -7.67119,12.9386 0,1.03981 0.99815,2.787 2.21878,3.88126 l 2.22051,1.989 26.63409,-0.095 c 30.13045,-0.10775 32.90019,-0.50755 41.99328,-6.04974 8.09553,-4.93421 11.51855,-8.99785 21.00243,-24.9365 5.01739,-8.43218 14.59967,-24.47557 21.29384,-35.65061 6.69424,-11.17506 16.70675,-28.06118 22.2501,-37.52577 l 10.07754,-17.20829 7.63774,16.97584 c 4.20054,9.33667 13.76525,30.82429 21.25532,47.74997 15.53198,35.09815 18.17234,40.48686 23.68022,48.33026 11.57879,16.48906 27.18047,27.26499 45.23329,31.24364 3.33147,0.73414 8.62606,0.99338 17.03391,0.83454 14.04195,-0.26483 20.52555,-1.62419 31.71821,-6.65332 9.15542,-4.11376 24.01414,-15.69369 31.75308,-24.74627 9.4746,-11.08285 17.53395,-24.66461 60.01822,-101.14082 96.95912,-174.53582 120.27937,-211.878 165.89664,-265.64248 5.26775,-6.20836 10.87378,-13.42036 12.45729,-16.02585 6.13359,-10.09136 1.48718,-18.88955 -7.69977,-18.96332 z"
       style="display:inline;fill:#64011e;fill-opacity:1;stroke-width:0.783482"
       id="path7"
       sodipodi:nodetypes="ssssssssssssssssccssssccssssssssssss" /><path
       d="m 585.9103,302.67658 c -6.57371,-1.52584 -85.91934,-1.52141 -91.46687,0.008 -5.25089,1.44446 -9.62137,3.92446 -12.49565,7.09174 -2.37506,2.61711 -28.94177,48.82215 -96.54751,167.91806 -47.34382,83.40218 -91.28207,160.91561 -98.32417,173.45759 -3.48584,6.20838 -7.97751,14.16611 -9.98042,17.68416 -21.16685,37.17885 -29.50812,52.367 -29.96982,54.56086 -0.72682,3.45353 1.16307,6.75577 4.93159,8.61741 2.95287,1.45875 4.65894,1.51506 46.54809,1.52724 l 43.48198,0.0154 4.3974,-2.14967 c 10.29761,-5.03553 11.47426,-6.82932 45.27208,-68.96431 6.38473,-11.73787 15.69146,-28.41691 37.57903,-67.35134 29.56979,-52.59971 93.1394,-166.25556 102.19414,-182.71146 1.86743,-3.39384 3.56102,-6.0533 3.79459,-5.96548 7.7e-4,4.8e-4 0.008,0.003 0.008,0.003 l 0.003,0.001 c 0.52191,0.4024 11.7797,26.14568 57.15137,130.68715 21.99514,50.67882 40.62177,93.08291 41.39221,94.23163 1.69336,2.52493 4.16949,3.63792 8.0933,3.63792 5.31406,0 7.4954,-2.49171 16.14617,-18.43762 9.46811,-17.45292 36.48313,-66.77363 39.49976,-72.11554 2.98574,-5.28686 2.57151,-8.70188 -2.43323,-20.06778 -2.46041,-5.58757 -20.41383,-46.73281 -39.89671,-91.43297 -50.91652,-116.82048 -52.05827,-119.37203 -54.79031,-122.41294 -3.14285,-3.49831 -8.63438,-6.4459 -14.58368,-7.82655 z"
       style="display:inline;fill:#64011e;fill-opacity:1;stroke-width:0.783482"
       id="path6"
       sodipodi:nodetypes="ccsssssscccssssccsssssssscc" /><path
       style="fill:#64011e;fill-opacity:1"
       d="m 243.04373,775.24084 c -9.96387,-4.04115 -14.1554,-16.16962 -19.61077,-33.23969 -5.45538,-17.07008 -12.17403,-39.07994 -8.77903,-60.10483 3.395,-21.02489 16.90327,-41.0623 27.16384,-42.91296 10.26058,-1.85066 17.27249,14.48597 23.90192,30.42787 6.62942,15.94191 12.87618,31.48868 17.09324,42.85318 4.21706,11.36451 6.40428,18.54633 6.34379,27.67021 -0.0605,9.12389 -2.36865,20.18884 -11.39102,27.74493 -9.02236,7.55608 -24.75809,11.60245 -34.72197,7.56129 z"
       id="path3"
       transform="matrix(0.981012,0,0,1.0705631,150.24422,-98.109718)"
       sodipodi:nodetypes="ccccccccc"
       inkscape:original-d="m 237.27148,783.32846 c -4.19162,-12.12877 -8.38314,-24.25724 -12.57484,-36.38621 -6.71905,-22.01118 -13.43771,-44.02104 -20.15677,-66.03224 13.50906,-20.03858 27.01733,-40.07599 40.52633,-60.11448 7.01215,16.33717 14.02406,32.6738 21.0361,49.01072 6.24681,15.54689 12.49357,31.09366 18.74041,46.64062 2.18728,7.18205 4.37449,14.36387 6.56181,21.54601 -2.3083,11.06563 -4.61645,22.13058 -6.92475,33.19621 -15.73643,4.04654 -31.47216,8.09291 -47.20829,12.13937 z"
       inkscape:path-effect="#path-effect3" /><path
       d="m 1082.1711,492.17064 c -14.0206,-0.0694 -19.4605,-0.0658 -21.7082,0.2162 -0.5946,0.0746 -0.8916,0.22387 -1.1349,0.34517 -0.2258,0.11258 -0.414,0.19464 -0.528,0.33098 -0.8347,0.99822 -42.2427,110.20291 -42.2427,110.92578 0,0.24011 8.0494,0.43642 17.8886,0.43642 h 17.8897 l 0.7967,-2.40859 c 0.4383,-1.32469 1.9496,-5.66036 3.3584,-9.63441 l 2.5616,-7.22478 h 23.4085 c 17.0348,0 23.4087,0.17528 23.4087,0.64338 0,0.3538 1.458,4.68844 3.2401,9.63339 l 3.2403,8.99101 h 17.9634 c 9.88,0 17.9635,-0.22061 17.9635,-0.4897 0,-0.42859 -14.1785,-37.53588 -26.0144,-68.08218 -2.2342,-5.76627 -6.8803,-17.7518 -10.3241,-26.63496 -3.4436,-8.88317 -6.4352,-16.32821 -6.6472,-16.54365 -0.2122,-0.21542 -10.6162,-0.44214 -23.12,-0.50406 z m -0.037,29.58453 c 0.3123,-0.0206 1.0289,2.09245 4.7836,12.68127 1.9895,5.61042 5.0153,13.94477 6.7237,18.5209 1.7082,4.57615 2.9421,8.46558 2.7412,8.6427 -0.5871,0.51792 -28.4229,0.36941 -28.4229,-0.15162 0,-0.4651 13.1457,-37.53551 13.8994,-39.19637 0.1118,-0.24606 0.171,-0.49003 0.275,-0.49688 z"
       style="display:none;fill:#fff6e3;fill-opacity:1;stroke-width:0.603437"
       id="path22"
       sodipodi:nodetypes="ssssssccccssscsssssssssssss" /><path
       d="m 1224.1555,491.93297 -0.2068,37.4035 c -0.1879,34.00863 -0.3082,37.63658 -1.3319,39.98421 -2.6216,6.01225 -8.1344,9.32977 -16.542,9.95508 -8.2382,0.61275 -14.8143,-1.74276 -18.2452,-6.53631 -3.1578,-4.41179 -3.1539,-4.35541 -3.5333,-43.56485 l -0.3582,-36.9978 h -17.0272 -17.027 l -0.1886,33.88126 c -0.2386,42.88877 0.2884,48.57152 5.3243,57.39151 6.7424,11.80801 18.2655,19.15622 34.209,21.8147 6.5512,1.09237 26.3047,0.78071 32.1415,-0.50714 20.2716,-4.47305 32.1919,-15.09851 35.8736,-31.97568 0.7257,-3.32618 0.908,-11.80537 0.908,-42.36209 v -38.2026 l -6.2655,-0.038 c -3.4455,-0.0211 -11.0943,-0.0855 -16.9975,-0.14239 z"
       style="display:none;fill:#fff6e3;fill-opacity:1;stroke-width:0.603437"
       id="path20" /><path
       d="m 1269.7169,491.69938 v 56.36292 56.36289 h 17.027 17.0284 v -17.56813 -17.56813 h 8.3066 8.3066 l 8.6601,14.30919 c 4.7632,7.87017 9.4831,15.76268 10.4877,17.53843 l 1.8264,3.22923 18.5341,0.0297 18.5341,0.0297 -1.5706,-2.40859 c -0.8645,-1.32469 -3.6934,-5.72383 -6.2859,-9.77579 -2.5925,-4.05197 -7.4067,-11.52983 -10.6981,-16.6174 -3.2911,-5.08758 -5.9835,-9.32506 -5.9835,-9.41722 0,-0.0921 1.9172,-1.15681 4.2608,-2.36557 5.4006,-2.78564 12.1169,-9.09029 14.8255,-13.91682 6.5972,-11.75578 6.4947,-26.62576 -0.2615,-38.04278 -4.3569,-7.36259 -13.4934,-14.24014 -22.7902,-17.15526 -7.7031,-2.41539 -10.5215,-2.58681 -45.992,-2.81021 z m 34.0554,26.01924 h 13.7902 c 12.2239,0 14.1803,0.12905 17.2294,1.13515 6.248,2.06185 9.1125,5.98052 9.1125,12.46613 0,6.52629 -3.2329,10.82061 -9.9001,13.14946 -3.1762,1.10936 -5.0288,1.27007 -16.8997,1.46504 l -13.3323,0.21925 v -14.21802 z"
       style="display:none;fill:#fff6e3;fill-opacity:1;stroke-width:0.603437"
       id="path18" /><path
       d="m 1427.7897,491.93297 -1.2332,3.11756 c -0.6785,1.71429 -6.5804,17.01505 -13.1163,34.00215 -6.5359,16.98711 -15.6688,40.65977 -20.2958,52.60607 -4.6268,11.94623 -8.4134,21.95629 -8.4135,22.24396 2e-4,0.30645 7.2515,0.52248 17.5239,0.52248 h 17.5237 l 3.5664,-9.49198 3.5662,-9.49304 23.0847,-0.14752 23.0848,-0.14651 3.48,9.63954 3.4797,9.63951 h 17.8854 c 9.8364,0 17.8839,-0.1065 17.8839,-0.23665 0,-0.2223 -26.5642,-69.89836 -37.6659,-98.79568 l -5.0621,-13.1761 -12.5299,-0.0103 c -6.8915,-0.006 -17.0823,-0.0689 -22.6459,-0.14138 z m 22.6119,30.2453 c 0.041,-0.005 0.073,0.019 0.097,0.0737 0.1994,0.46753 3.2974,9.01094 6.885,18.98502 3.5877,9.97409 6.7734,18.55285 7.0793,19.06391 0.4211,0.70401 0.2095,1.01109 -0.874,1.26731 -0.787,0.186 -7.2864,0.34155 -14.4427,0.34628 -14.0163,0.008 -13.8099,0.0566 -12.3981,-2.94134 0.8486,-1.80192 9.887,-26.86432 11.8127,-32.75431 0.7647,-2.3389 1.5342,-4.00412 1.8412,-4.04064 z"
       style="display:none;fill:#fff6e3;fill-opacity:1;stroke-width:0.603437"
       id="path16" /><path
       d="m 1559.1308,527.8447 c -15.0901,0.38848 -29.9306,4.72364 -40.8933,13.51119 -8.3795,6.71653 -12.5901,10.28918 -11.8504,11.02284 v 0.0169 0.0189 0.0189 c 1.1357,0.58323 7.9257,-2.03862 21.2933,-7.55303 15.9449,-6.57752 39.7426,-9.02299 53.5893,-5.50263 22.4412,5.70524 20.95,8.51049 -15.1298,28.30186 -39.1134,21.45588 -39.4354,22.27398 -13.516,35.57443 24.071,12.35266 29.039,11.95384 53.5108,-4.25843 21.9967,-14.57363 24.5363,-22.44267 13.8331,-42.72441 -9.9062,-18.77203 -35.7667,-29.07231 -60.9169,-28.42442 z"
       id="path24"
       style="fill:#010132;fill-opacity:1;stroke-width:10.5815"
       sodipodi:nodetypes="csccccsssscscc" /><path
       d="m 1476.7141,536.25639 c -6.1502,0.036 -13.2554,0.23237 -21.4257,0.33287 -31.657,0.38941 -23.2491,3.59658 -13.9375,6.08561 56.0312,14.97918 -38.809,196.70259 38.3245,190.30996 6.401,-0.53049 53.0159,2.4815 68.2385,0.65326 3.3219,-0.39898 2.324,-16.13112 -3.8973,-21.03225 -6.6785,-5.26095 -21.2534,3.13096 -27.5617,-2.43148 -20.0901,-17.71537 -5.6168,-13.75819 -3.4255,-72.67977 3.5168,-94.49045 6.7276,-101.50397 -36.3169,-101.2382 z"
       id="path23"
       style="fill:#010132;fill-opacity:1;stroke-width:10.5815"
       sodipodi:nodetypes="cscssaaccc" /><path
       d="m 1393.5998,536.46888 -22.5906,-0.31808 c -52.4521,0.2225 -59.7077,2.04473 -39.3057,9.9012 21.3679,8.22845 24.5529,19.66171 21.8749,78.24633 -1.7261,37.7304 -2.2949,77.67495 -1.2967,88.77835 1.5773,17.5405 16.3324,19.65947 65.7537,19.65947 8.1971,0 12.0055,0.20642 12.1443,0.008 0.1458,-3.08609 3.7089,-15.74994 -2.2368,-20.60142 -4.7214,-3.8526 -16.3806,1.00881 -19.8726,-1.30481 -10.4292,-6.90951 -14.4705,-30.0062 -14.4705,-86.43311 z"
       id="path21"
       style="fill:#010132;fill-opacity:1;stroke-width:10.5815"
       sodipodi:nodetypes="ccsccssassc" /><path
       d="m 1176.3011,533.55757 c -19.4262,-0.16592 -33.1432,1.45487 -33.1432,4.32857 0,3.83164 6.093,6.95719 13.5421,6.95719 7.8807,0 13.5438,29.5057 13.5438,70.57056 0,57.80746 5.0716,74.84519 28.0645,94.21092 21.6536,18.23755 40.0206,23.64042 80.3058,23.64042 29.4171,0 62.0327,-22.21744 74.0201,-30.15989 29.6795,-19.66288 32.8989,-39.69197 2.6696,-21.56718 -10.8104,6.48154 -28.6109,22.31338 -40.3378,27.8844 -22.3126,10.59993 -53.8768,14.78513 -71.5706,1.58988 -28.054,-20.9214 -8.2265,-49.79039 -8.2265,-93.2822 v -79.06989 l -37.8395,-4.31438 c -7.4486,-0.47015 -14.5529,-0.73304 -21.0283,-0.78868 z"
       id="path19"
       style="fill:#010132;fill-opacity:1;stroke-width:10.5815"
       sodipodi:nodetypes="sssssscssasccss" /><path
       d="m 1034.3251,526.89836 c -63.8984,0 -128.53654,31.70773 -114.4004,56.11296 5.2427,9.0517 23.2064,15.6668 42.4803,15.6668 26.7515,0 32.5957,-4.00753 29.4398,-20.18803 -5.4798,-28.10054 11.438,-42.61926 49.7018,-42.61926 43.9629,0 57.56,20.60045 58.9331,89.33919 1.2539,62.77283 -22.061,99.08275 -63.6151,99.08275 -73.9705,0 -49.833,-84.01388 23.7249,-101.43102 11.3788,-2.69409 40.5045,-5.12364 20.0026,-5.52023 -100.4012,-1.94282 -217.48768,56.23399 -154.4788,97.97874 33.5636,22.23675 116.545,23.94063 151.3011,3.1018 23.045,-13.81743 24.7585,-13.81743 24.7585,0 0,10.78957 12.1075,14.84317 44.2785,14.84317 h 25.2251 c 0,0 5.5742,-14.60801 0.074,-19.06089 -4.9956,-4.04383 -21.0053,0.36031 -21.0053,0.36031 -7.2092,-113.23188 2.1314,-187.66629 -116.4196,-187.66629 z"
       id="path26"
       style="fill:#010132;fill-opacity:1;stroke-width:10.5815"
       sodipodi:nodetypes="ssscsssscsssscacss" /><path
       d="m 1761.1436,526.89836 c -63.8984,0 -128.5365,31.70773 -114.4,56.11296 5.2425,9.0517 23.2061,15.6668 42.48,15.6668 26.7518,0 32.5956,-4.00753 29.4399,-20.18803 -5.4799,-28.10054 11.4382,-42.61926 49.7018,-42.61926 43.9628,0 57.5602,20.60045 58.9328,89.33919 1.2544,62.77283 -22.0607,99.08275 -63.615,99.08275 -73.9704,0 -49.8328,-84.01388 23.7251,-101.43102 11.3788,-2.69409 40.5044,-5.12364 20.0026,-5.52023 -100.4012,-1.94282 -217.4876,56.23399 -154.4789,97.97874 33.5638,22.23675 116.5454,23.94063 151.3008,3.1018 23.0453,-13.81743 24.7589,-13.81743 24.7589,0 0,10.78957 12.1072,14.84317 44.2784,14.84317 h 25.2379 c 0,0 5.5627,-14.60927 0.062,-19.06089 -4.9968,-4.04268 -21.005,0.36031 -21.005,0.36031 -7.2092,-113.23188 2.1315,-187.66629 -116.4199,-187.66629 z"
       id="path27"
       style="fill:#010132;fill-opacity:1;stroke-width:10.5815"
       sodipodi:nodetypes="ssscsssscsssscacss" /><text
       xml:space="preserve"
       transform="matrix(1.602835,0,0,1.3205787,-580.3841,317.47338)"
       id="text27"
       style="font-style:normal;font-variant:normal;font-weight:normal;font-stretch:semi-condensed;font-size:53.3333px;font-family:'Lucida Console';-inkscape-font-specification:'Lucida Console Semi-Condensed';text-align:start;writing-mode:lr-tb;direction:ltr;white-space:pre;shape-inside:url(#rect27);display:inline;fill:#010132;fill-opacity:1"><tspan
         x="848"
         y="314.93278"
         id="tspan1">BY</tspan></text></g></svg>
